<svg width="21" height="20" viewBox="0 0 21 20" fill="none" xmlns="http://www.w3.org/2000/svg">
<path d="M0.875366 8.85449C0.875366 8.44434 0.957397 8.0957 1.12146 7.80859C1.29138 7.51562 1.5199 7.2959 1.80701 7.14941C2.09412 7.00293 2.42224 6.92969 2.79138 6.92969H3.15173V16.624C3.15173 16.8643 3.099 17.0664 2.99353 17.2305C2.88806 17.4004 2.74744 17.5264 2.57166 17.6084C2.40173 17.6963 2.21716 17.7432 2.01794 17.749C1.81287 17.749 1.62244 17.7051 1.44666 17.6172C1.27673 17.5293 1.13904 17.4004 1.03357 17.2305C0.928101 17.0664 0.875366 16.8643 0.875366 16.624V8.85449ZM3.98669 19.1729C4.31482 18.9971 4.54333 18.7715 4.67224 18.4961C4.80115 18.2266 4.8656 17.8662 4.8656 17.415V3.00098C4.8656 2.05762 5.10876 1.3457 5.59509 0.865234C6.08142 0.384766 6.79919 0.144531 7.74841 0.144531H17.8998C18.8549 0.144531 19.5756 0.384766 20.0619 0.865234C20.5482 1.3457 20.7914 2.05762 20.7914 3.00098V16.3164C20.7914 17.2539 20.5482 17.9629 20.0619 18.4434C19.5756 18.9297 18.8549 19.1729 17.8998 19.1729H3.98669ZM8.59216 5.62012H17.0736C17.2377 5.62012 17.3754 5.56152 17.4867 5.44434C17.6039 5.32715 17.6625 5.18652 17.6625 5.02246C17.6625 4.86426 17.6039 4.72949 17.4867 4.61816C17.3754 4.50684 17.2377 4.45117 17.0736 4.45117H8.59216C8.42224 4.45117 8.27869 4.50684 8.1615 4.61816C8.05017 4.72949 7.99451 4.86426 7.99451 5.02246C7.99451 5.18652 8.05017 5.32715 8.1615 5.44434C8.27869 5.56152 8.42224 5.62012 8.59216 5.62012ZM8.59216 8.65234H17.0736C17.2377 8.65234 17.3754 8.59961 17.4867 8.49414C17.6039 8.38281 17.6625 8.24219 17.6625 8.07227C17.6625 7.9082 17.6039 7.77051 17.4867 7.65918C17.3754 7.54199 17.2377 7.4834 17.0736 7.4834H8.59216C8.42224 7.4834 8.27869 7.54199 8.1615 7.65918C8.05017 7.77051 7.99451 7.9082 7.99451 8.07227C7.99451 8.24219 8.05017 8.38281 8.1615 8.49414C8.27869 8.59961 8.42224 8.65234 8.59216 8.65234ZM13.9359 11.7021H17.0736C17.2377 11.7021 17.3754 11.6465 17.4867 11.5352C17.598 11.4238 17.6537 11.2891 17.6537 11.1309C17.6537 10.9551 17.598 10.8115 17.4867 10.7002C17.3754 10.5889 17.2377 10.5332 17.0736 10.5332H13.9359C13.766 10.5332 13.6254 10.5889 13.514 10.7002C13.4027 10.8115 13.347 10.9551 13.347 11.1309C13.347 11.2891 13.4027 11.4238 13.514 11.5352C13.6254 11.6465 13.766 11.7021 13.9359 11.7021ZM13.9359 14.7695H17.0736C17.2377 14.7695 17.3754 14.7139 17.4867 14.6025C17.598 14.4912 17.6537 14.3564 17.6537 14.1982C17.6537 14.0283 17.598 13.8877 17.4867 13.7764C17.3754 13.6592 17.2377 13.6006 17.0736 13.6006H13.9359C13.766 13.6006 13.6254 13.6592 13.514 13.7764C13.4027 13.8877 13.347 14.0283 13.347 14.1982C13.347 14.3564 13.4027 14.4912 13.514 14.6025C13.6254 14.7139 13.766 14.7695 13.9359 14.7695ZM9.04041 14.8047H11.1498C11.4779 14.8047 11.7357 14.7109 11.9232 14.5234C12.1107 14.3359 12.2045 14.0781 12.2045 13.75V11.5879C12.2045 11.2598 12.1107 11.002 11.9232 10.8145C11.7357 10.627 11.4779 10.5332 11.1498 10.5332H9.04041C8.70642 10.5332 8.44568 10.627 8.25818 10.8145C8.07654 11.002 7.98572 11.2598 7.98572 11.5879V13.75C7.98572 14.0781 8.07654 14.3359 8.25818 14.5234C8.44568 14.7109 8.70642 14.8047 9.04041 14.8047Z" fill="#28B1CE"/>
</svg>
