<svg width="22" height="16" viewBox="0 0 22 16" fill="none" xmlns="http://www.w3.org/2000/svg">
<path d="M3.13452 15.3359C2.1853 15.3359 1.46753 15.0957 0.981201 14.6152C0.494873 14.1348 0.251709 13.4229 0.251709 12.4795V7.56641C0.251709 7.24414 0.269287 6.97168 0.304443 6.74902C0.3396 6.52637 0.401123 6.32715 0.489014 6.15137C0.576904 5.97559 0.694092 5.78809 0.840576 5.58887L3.73218 1.73047C4.07202 1.27344 4.37964 0.921875 4.65503 0.675781C4.93042 0.423828 5.23511 0.248047 5.56909 0.148438C5.90894 0.0488281 6.34546 -0.000976562 6.87866 -0.000976562H14.446C14.9734 -0.000976562 15.407 0.0488281 15.7468 0.148438C16.0867 0.248047 16.3943 0.423828 16.6697 0.675781C16.9451 0.921875 17.2527 1.27344 17.5925 1.73047L20.4841 5.58887C20.6306 5.78809 20.7449 5.97559 20.8269 6.15137C20.9148 6.32715 20.9763 6.52637 21.0115 6.74902C21.0525 6.97168 21.073 7.24414 21.073 7.56641V12.4795C21.073 13.4229 20.8298 14.1348 20.3435 14.6152C19.8572 15.0957 19.1365 15.3359 18.1814 15.3359H3.13452ZM10.658 9.95703C11.1033 9.95703 11.4871 9.85449 11.8093 9.64941C12.1375 9.43848 12.3894 9.16895 12.5652 8.84082C12.7468 8.50684 12.8376 8.15527 12.8376 7.78613V7.72461C12.8376 7.52539 12.8962 7.34668 13.0134 7.18848C13.1365 7.02441 13.324 6.94238 13.5759 6.94238H18.8845C19.0427 6.94238 19.1365 6.88965 19.1658 6.78418C19.2009 6.67871 19.1833 6.57031 19.113 6.45898L15.905 2.15234C15.7175 1.89453 15.5066 1.71289 15.2722 1.60742C15.0378 1.49609 14.7683 1.44043 14.4636 1.44043H6.85229C6.55933 1.44043 6.29272 1.49609 6.05249 1.60742C5.81812 1.71289 5.60425 1.89453 5.41089 2.15234L2.21167 6.45898C2.12964 6.57031 2.1062 6.67871 2.14136 6.78418C2.17651 6.88965 2.27319 6.94238 2.4314 6.94238H7.74878C8.00073 6.94238 8.18823 7.02441 8.31128 7.18848C8.43433 7.34668 8.49585 7.52539 8.49585 7.72461V7.78613C8.49585 8.15527 8.58374 8.50684 8.75952 8.84082C8.9353 9.16895 9.18433 9.43848 9.50659 9.64941C9.83472 9.85449 10.2185 9.95703 10.658 9.95703Z" fill="#28B1CE"/>
</svg>
