<svg width="21" height="17" viewBox="0 0 21 17" fill="none" xmlns="http://www.w3.org/2000/svg">
<path d="M1.4209 12.8467V5.28809C1.4209 5.02441 1.5 4.81641 1.6582 4.66406C1.82227 4.50586 2.03906 4.42676 2.30859 4.42676H4.26855C4.5498 4.42676 4.76953 4.50586 4.92773 4.66406C5.08594 4.81641 5.16504 5.02441 5.16504 5.28809V12.8467C5.16504 13.1162 5.08594 13.3301 4.92773 13.4883C4.76953 13.6406 4.5498 13.7168 4.26855 13.7168H2.30859C2.03906 13.7168 1.82227 13.6406 1.6582 13.4883C1.5 13.3301 1.4209 13.1162 1.4209 12.8467ZM6.22852 12.8467V1.29785C6.22852 1.02832 6.30762 0.817383 6.46582 0.665039C6.62988 0.512695 6.84375 0.436523 7.10742 0.436523H9.07617C9.3457 0.436523 9.55957 0.512695 9.71777 0.665039C9.88184 0.817383 9.96387 1.02832 9.96387 1.29785V12.8467C9.96387 13.1162 9.88184 13.3301 9.71777 13.4883C9.55957 13.6406 9.3457 13.7168 9.07617 13.7168H7.10742C6.84375 13.7168 6.62988 13.6406 6.46582 13.4883C6.30762 13.3301 6.22852 13.1162 6.22852 12.8467ZM11.0273 12.8467V3.36328C11.0273 3.09375 11.1064 2.88281 11.2646 2.73047C11.4229 2.57227 11.6396 2.49316 11.915 2.49316H13.875C14.1445 2.49316 14.3613 2.57227 14.5254 2.73047C14.6895 2.88281 14.7715 3.09375 14.7715 3.36328V12.8467C14.7715 13.1162 14.6895 13.3301 14.5254 13.4883C14.3613 13.6406 14.1445 13.7168 13.875 13.7168H11.915C11.6396 13.7168 11.4229 13.6406 11.2646 13.4883C11.1064 13.3301 11.0273 13.1162 11.0273 12.8467ZM15.8262 12.8467V7.17773C15.8262 6.9082 15.9053 6.69434 16.0635 6.53613C16.2275 6.37793 16.4443 6.29883 16.7139 6.29883H18.6738C18.9492 6.29883 19.166 6.37793 19.3242 6.53613C19.4883 6.69434 19.5703 6.9082 19.5703 7.17773V12.8467C19.5703 13.1162 19.4883 13.3301 19.3242 13.4883C19.166 13.6406 18.9492 13.7168 18.6738 13.7168H16.7139C16.4443 13.7168 16.2275 13.6406 16.0635 13.4883C15.9053 13.3301 15.8262 13.1162 15.8262 12.8467ZM0.462891 16.0371C0.462891 15.7969 0.547852 15.5947 0.717773 15.4307C0.887695 15.2666 1.08984 15.1846 1.32422 15.1846H19.667C19.9072 15.1846 20.1123 15.2666 20.2822 15.4307C20.4521 15.5947 20.5371 15.7969 20.5371 16.0371C20.5371 16.2832 20.4521 16.4854 20.2822 16.6436C20.1123 16.8076 19.9072 16.8896 19.667 16.8896H1.32422C1.08984 16.8896 0.887695 16.8076 0.717773 16.6436C0.547852 16.4854 0.462891 16.2832 0.462891 16.0371Z" fill="#28B1CE"/>
</svg>
